<svg width="24" height="24" viewBox="0 0 24 24" fill="none" xmlns="http://www.w3.org/2000/svg">
<path d="M12 17L3.5 24H20.5L12 17Z" fill="#FFC692"/>
<path d="M20.5 6L3.5 6L7 10L12 11.5L17 10L20.5 6Z" fill="#FFC692"/>
<rect x="11" y="11" width="2" height="8" fill="#FFC692"/>
<rect width="24" height="1" rx="0.5" fill="black"/>
<rect y="23" width="24" height="1" rx="0.5" fill="black"/>
<path d="M10.004 10.9224L10.0805 10.4283L10.004 10.9224ZM10.004 13.0776L10.0805 13.5717L10.004 13.0776ZM9.92744 12.5835C8.15341 12.8582 6.28599 13.8252 4.86695 15.6827C3.44803 17.5401 2.5 20.2567 2.5 24H3.5C3.5 20.4254 4.40368 17.9364 5.6616 16.2898C6.91941 14.6433 8.55397 13.8081 10.0805 13.5717L9.92744 12.5835ZM10.0805 10.4283C8.55397 10.1919 6.91941 9.35666 5.6616 7.71021C4.40368 6.06362 3.5 3.57461 3.5 0H2.5C2.5 3.74333 3.44803 6.45994 4.86695 8.31728C6.28599 10.1748 8.15341 11.1418 9.92744 11.4165L10.0805 10.4283ZM9.92744 11.4165C10.2765 11.4706 10.5 11.739 10.5 12H11.5C11.5 11.1564 10.823 10.5433 10.0805 10.4283L9.92744 11.4165ZM10.0805 13.5717C10.823 13.4567 11.5 12.8436 11.5 12H10.5C10.5 12.261 10.2765 12.5294 9.92744 12.5835L10.0805 13.5717Z" fill="black"/>
<path d="M13.996 13.0776L13.9195 13.5717L13.996 13.0776ZM13.996 10.9224L13.9195 10.4283L13.996 10.9224ZM14.0726 11.4165C15.8466 11.1418 17.714 10.1748 19.133 8.31728C20.552 6.45994 21.5 3.74333 21.5 4.37114e-08L20.5 -4.37114e-08C20.5 3.57461 19.5963 6.06362 18.3384 7.71021C17.0806 9.35665 15.446 10.1919 13.9195 10.4283L14.0726 11.4165ZM13.9195 13.5717C15.446 13.8081 17.0806 14.6433 18.3384 16.2898C19.5963 17.9364 20.5 20.4254 20.5 24L21.5 24C21.5 20.2567 20.552 17.5401 19.133 15.6827C17.714 13.8252 15.8466 12.8582 14.0726 12.5835L13.9195 13.5717ZM14.0726 12.5835C13.7235 12.5294 13.5 12.261 13.5 12L12.5 12C12.5 12.8436 13.177 13.4567 13.9195 13.5717L14.0726 12.5835ZM13.9195 10.4283C13.177 10.5433 12.5 11.1564 12.5 12L13.5 12C13.5 11.739 13.7235 11.4706 14.0726 11.4165L13.9195 10.4283Z" fill="black"/>
</svg>
